<svg t="1747379927234" class="icon" viewBox="0 0 1024 1024" version="1.1" xmlns="http://www.w3.org/2000/svg" p-id="5040" width="200" height="200"><path d="M574.815503 902.788936v-136.559001c0-17.858346-8.724375-46.284245 14.090071-47.676868 27.852466-1.761259 56.196446 3.481558 83.598357-4.014032 57.752907-15.892289 83.188762-67.665108 83.188762-123.615796v-133.118403c0-34.283109 3.35868-68.689096-15.441735-99.367768-29.859482-48.414139-77.945945-56.196446-129.841642-56.196445-6.881197 0-27.934385 3.440599-33.177202-0.901109-5.939129-5.324736-2.416611-20.479754-2.416611-27.360952v-157.284513c190.461714 30.391955 333.246561 203.568757 333.246561 395.464055 0 191.977216-143.685956 360.402715-333.246561 390.712751v-0.081919z m-178.378659-295.973408c-18.882333 0-11.304824-43.703796-11.304825-55.582053v-103.504678c0-8.970132-3.276761-23.633636 1.925097-31.374984 8.31478-12.001136 52.018576-4.956101 65.699052-4.9561h129.268209c13.148002 0 57.752907-7.700388 61.234465 9.011092 4.341708 20.315916 0.204798 46.284245 0.204797 67.050715v89.701324c0 15.441735 2.53949 29.531806-16.711479 29.531805H396.436844v0.122879z m-280.572634-94.739343c0-191.813378 142.661968-365.113059 333.205602-395.423095v137.214353c0 12.49265 4.505546 33.586797-0.983028 44.973541-4.382667 8.806294-46.857678 3.31772-56.606041 3.31772-54.844782 0-107.723507 32.439931-120.994388 88.472538-5.734331 24.575705-2.293732 53.001604-2.293732 78.150742 0 45.342176-1.474542 91.012028 0 136.395163 0 39.935521 21.708539 77.700188 56.073567 97.893226 24.575705 14.417747 50.584993 15.441735 78.068823 15.441734 12.902245 0 41.942537-6.389683 46.69384 8.191902 3.686356 11.181946 0 32.112255 0 43.990512v132.012496c-189.519646-30.146198-333.205602-198.653616-333.205602-390.630832zM511.901698 0.00041C245.419136 0.00041 17.725228 213.399449 1.013749 479.636254c-16.62956 266.236805 181.819258 507.283513 446.704399 540.501674 264.598425 33.095283 517.728187-150.075639 567.248233-412.585129 24.12515-128.121343-0.204798-266.482562-70.245557-376.7046-68.033744-106.986236-176.617401-183.375719-299.209209-214.382067A544.96626 544.96626 0 0 0 511.983617 0.00041h-0.081919z" fill="#9A1F24" p-id="5041"></path></svg>